<svg width="263" height="263" viewBox="0 0 263 263" fill="none" xmlns="http://www.w3.org/2000/svg">
<circle cx="131.5" cy="131.5" r="113.5" fill="white"/>
<path d="M81.3502 173.123C95.0832 174.158 107.055 163.863 108.089 150.13C109.124 136.397 98.8293 124.426 85.0963 123.392C71.3633 122.357 59.3919 132.651 58.3574 146.384C57.3229 160.117 67.6171 172.089 81.3502 173.123Z" fill="#57C1EF"/>
<path d="M157.24 139.596C157.994 139.385 158.693 139.017 159.294 138.515C159.894 138.014 160.381 137.391 160.723 136.688C163.939 130.123 169.626 125.101 176.538 122.722C183.45 120.342 191.023 120.799 197.599 123.992C198.909 124.65 200.427 124.76 201.818 124.299C203.21 123.838 204.361 122.843 205.019 121.532C205.676 120.222 205.787 118.705 205.325 117.313C204.864 115.922 203.869 114.77 202.559 114.113C195.682 110.76 187.963 109.527 180.384 110.572C172.805 111.616 165.708 114.89 159.994 119.978C160.474 116.552 161.495 113.225 163.02 110.12C166.294 103.074 172.199 97.5918 179.469 94.8512C180.167 94.6166 180.811 94.2449 181.364 93.7579C181.916 93.271 182.366 92.6786 182.687 92.0154C183.007 91.3523 183.192 90.6319 183.23 89.8964C183.268 89.1609 183.159 88.4252 182.909 87.7324C182.669 87.0384 182.294 86.3986 181.806 85.8498C181.317 85.3011 180.726 84.8541 180.064 84.5344C179.403 84.2148 178.685 84.0289 177.952 83.9873C177.218 83.9457 176.484 84.0493 175.791 84.292C165.758 87.9886 157.583 95.4854 153.034 105.161C148.219 114.702 147.353 125.755 150.624 135.93C150.967 136.968 151.611 137.882 152.474 138.554C153.336 139.227 154.379 139.629 155.47 139.709C156.063 139.752 156.658 139.714 157.24 139.596V139.596Z" fill="#57C1EF"/>
</svg>
