<svg xmlns="http://www.w3.org/2000/svg" viewBox="0 0 362.01 175.56"><defs><style>.cls-1{fill:#57c1ef;}</style></defs><title>Asset 3</title><g id="Layer_2" data-name="Layer 2"><g id="Layer_1-2" data-name="Layer 1"><path class="cls-1" d="M335.68,121.9c0-15.52-10.82-26.81-26.33-26.81C294.3,95.09,283,106.38,283,121.9c0,15,11.29,26.8,26.34,26.8C324.86,148.7,335.68,137,335.68,121.9Zm-79,0c0-28.22,24.45-51.26,52.67-51.26,30.56,0,52.66,20.69,52.66,51.26,0,28.21-24.45,51.26-52.66,51.26C278.78,173.16,256.68,152.47,256.68,121.9Z"/><path class="cls-1" d="M96.48,102.8c-7.56-17.16-23.3-24.93-38-18.18C44.23,91.17,39,108.55,46.61,125.71c7.33,16.64,23.75,24.73,38,18.18C99.31,137.14,103.82,119.44,96.48,102.8Zm-68,46C8.21,121.66,11.67,83.41,34.75,64.89c25-20.07,57.93-14.65,79.87,14.79,20.26,27.17,16.8,65.42-6.28,83.94C83.34,183.69,50.41,178.27,28.46,148.83Z"/><path class="cls-1" d="M141.24,122.27V13.16A13.16,13.16,0,0,1,154.39,0h0a13.16,13.16,0,0,1,13.15,13.16V81.83C173.21,75.24,184,71,196.26,71c29.3,0,49.86,20.24,50.31,50.26a51.74,51.74,0,0,1-48.33,52.12C165.45,175.44,141.24,154.26,141.24,122.27Zm79,0c0-15.52-10.82-26.81-26.33-26.81-15,0-26.34,11.29-26.34,26.81,0,15,11.29,26.8,26.34,26.8C209.42,149.07,220.24,137.32,220.24,122.27Z"/><circle class="cls-1" cx="11.2" cy="57.8" r="11.2"/><path class="cls-1" d="M42.16,48a2.15,2.15,0,0,0,1.06-1.41,10.74,10.74,0,0,1,12.83-8.08,2.14,2.14,0,1,0,1-4.18,15,15,0,0,0-15.59,6,12.69,12.69,0,0,1,.27-4,11.54,11.54,0,0,1,4.87-7.24,2.15,2.15,0,0,0,.67-3,2.17,2.17,0,0,0-3-.67,15.82,15.82,0,0,0-6.76,9.92,15.81,15.81,0,0,0,1.82,11.86,2.15,2.15,0,0,0,2.17,1A2.53,2.53,0,0,0,42.16,48Z"/></g></g></svg>