<svg width="1136" height="1262" viewBox="0 0 1136 1262" fill="none" xmlns="http://www.w3.org/2000/svg">
<circle cx="450.593" cy="582.593" r="348.593" fill="#B2C1B3"/>
<g style="mix-blend-mode:multiply">
<circle cx="651.566" cy="401.41" r="348.593" stroke="#E04229" stroke-opacity="0.7" stroke-width="105.634"/>
</g>
<path d="M296.667 1191.79C296.667 1211.1 289.885 1226.96 276.321 1239.38C262.757 1251.79 244.939 1258 222.868 1258H125.273V1030.39H204.935C225.397 1030.39 241.835 1036.14 254.25 1047.64C266.895 1058.9 273.217 1073.39 273.217 1091.09C273.217 1108.79 266.895 1123.05 254.25 1133.85C267.585 1138.22 277.93 1145.46 285.287 1155.58C292.874 1165.69 296.667 1177.76 296.667 1191.79ZM201.487 1062.47H161.139V1123.85H201.487C212.522 1123.85 221.144 1121.09 227.351 1115.57C233.559 1110.06 236.662 1102.47 236.662 1092.81C236.662 1083.39 233.559 1076.03 227.351 1070.74C221.374 1065.22 212.752 1062.47 201.487 1062.47ZM259.768 1190.75C259.768 1179.72 256.204 1171.1 249.077 1164.89C241.95 1158.45 232.179 1155.23 219.764 1155.23H161.139V1225.93H219.764C232.409 1225.93 242.18 1222.82 249.077 1216.62C256.204 1210.18 259.768 1201.56 259.768 1190.75ZM359.833 1173.17C359.373 1149.03 367.995 1128.22 385.697 1110.75C403.63 1093.04 424.781 1084.42 449.151 1084.88C473.751 1084.42 495.017 1093.04 512.949 1110.75C530.882 1128.45 539.618 1149.26 539.159 1173.17C539.618 1197.31 530.882 1218.23 512.949 1235.93C495.017 1253.63 473.751 1262.25 449.151 1261.79C424.781 1262.25 403.63 1253.63 385.697 1235.93C367.995 1218 359.373 1197.08 359.833 1173.17ZM501.914 1173.51C501.914 1157.88 496.856 1144.77 486.74 1134.2C476.625 1123.39 464.21 1117.99 449.496 1117.99C434.552 1117.99 422.022 1123.39 411.906 1134.2C401.791 1144.77 396.733 1157.88 396.733 1173.51C396.733 1189.14 401.676 1202.25 411.561 1212.82C421.677 1223.17 434.207 1228.34 449.151 1228.34C464.095 1228.34 476.625 1223.05 486.74 1212.48C496.856 1201.9 501.914 1188.91 501.914 1173.51ZM763.1 1152.13V1258H726.89V1156.96C726.89 1145.23 723.442 1135.81 716.545 1128.68C709.877 1121.32 701.026 1117.64 689.991 1117.64C678.725 1117.64 669.414 1121.32 662.057 1128.68C654.93 1136.04 651.367 1145.46 651.367 1156.96V1258H615.157V1088.68H648.953V1105.23C661.827 1091.66 678.725 1084.88 699.647 1084.88C719.188 1084.88 734.592 1090.97 745.857 1103.16C757.353 1115.34 763.1 1131.67 763.1 1152.13ZM976.634 999.357H1013.19V1258H979.393V1233.86C966.288 1252.48 946.517 1261.79 920.078 1261.79C896.397 1261.79 876.626 1253.4 860.762 1236.62C845.129 1219.61 837.312 1198.57 837.312 1173.51C836.852 1148.68 844.669 1127.64 860.762 1110.4C876.856 1092.93 896.627 1084.42 920.078 1084.88C944.448 1084.88 963.3 1093.04 976.634 1109.37V999.357ZM962.495 1214.2C972.381 1204.55 977.324 1190.98 977.324 1173.51C977.324 1156.04 972.266 1142.47 962.15 1132.82C952.264 1122.93 940.309 1117.99 926.285 1117.99C911.571 1117.99 899.156 1123.16 889.04 1133.51C879.155 1143.85 874.212 1157.07 874.212 1173.17C874.212 1189.26 879.155 1202.59 889.04 1213.17C898.926 1223.51 911.341 1228.69 926.285 1228.69C940.539 1228.69 952.609 1223.86 962.495 1214.2Z" fill="#1C1C1C"/>
</svg>
