<svg width="604" height="487" viewBox="0 0 604 487" fill="none" xmlns="http://www.w3.org/2000/svg">
<mask id="mask0" mask-type="alpha" maskUnits="userSpaceOnUse" x="0" y="0" width="604" height="487">
<path d="M47.58 5.82999V210.92C31.72 210.66 15.86 210.25 0 209.69V4.10999C15.86 4.90332 31.72 5.47665 47.58 5.82999ZM32.89 5.42999C67.45 6.49999 102 6.61999 136.57 6.25999V63.79C102 67 67.45 65.89 32.89 56.51V5.42999ZM32.89 98.07C65.49 110.63 98.09 112.69 130.69 109.07V150C98.09 153.7 65.49 151.57 32.89 138.57V98.07ZM32.89 180.22C67.45 189.42 102.01 190.46 136.57 187.36V211.23C102.01 211.49 67.45 211.41 32.89 210.64V180.22Z" fill="white"/>
<path d="M216.45 210.17C201.863 210.423 187.277 210.65 172.69 210.85V94C187.27 90.77 201.86 86.85 216.45 82.66V210.17ZM248 113.45C245.333 112.937 242.053 113.317 238.16 114.59C233.811 116.021 229.88 118.497 226.71 121.8C223.282 125.352 220.674 129.612 219.07 134.28C217.245 139.593 216.352 145.182 216.43 150.8C212.9 146.88 209.43 143 205.86 139.07C205.881 128.649 208.028 118.342 212.17 108.78C216.092 99.3299 221.715 90.6799 228.76 83.26C235.61 76.18 242.76 71.64 250.2 69.48C254.764 68.0964 259.564 67.6708 264.3 68.23C268.8 68.81 272.23 70.42 274.58 73.1C268.22 87.1 261.85 101.86 255.49 116.64C253.243 115.066 250.692 113.979 248 113.45V113.45Z" fill="white"/>
<path d="M298.39 4.56C303.48 1.3 309.55 0 316.59 0C323.84 0 330 1.24 335 3.52C340 5.8 342.49 8.8 342.49 13.06C342.49 17.32 339.99 21.35 335 25.06C329.592 29.0566 323.289 31.6723 316.64 32.68C309.64 33.87 303.53 33.23 298.44 30.48C296.084 29.3394 294.108 27.5405 292.752 25.3009C291.396 23.0612 290.718 20.4768 290.8 17.86C290.75 12.37 293.29 7.81 298.39 4.56ZM338 50.71V208.26C323.713 208.4 309.423 208.587 295.13 208.82V60C309.45 56.27 323.74 53.05 338 50.71Z" fill="white"/>
<path d="M416.45 140.05C419.392 146.806 423.863 152.787 429.51 157.52C434.683 161.937 440.9 164.956 447.57 166.29C452.743 167.334 458.047 167.563 463.29 166.97C468.001 166.447 472.634 165.366 477.09 163.75C481.039 162.39 484.612 160.119 487.52 157.12V200.29C481.998 203.754 476.083 206.547 469.9 208.61C461.566 211.371 452.829 212.722 444.05 212.61C429.546 212.824 415.407 208.051 404 199.09C392.15 190.01 382.86 177.54 376.1 162.95C369.312 148.101 365.855 131.947 365.97 115.62C365.97 98.62 369.35 85.16 376.1 74.47C382.529 64.0884 392.405 56.3001 404 52.47C415.85 48.47 429.21 48.24 444.09 52.65C453.433 55.3569 462.196 59.764 469.94 65.65C476.579 70.7697 482.504 76.7525 487.56 83.44V126.9C484.715 120.673 481.1 114.827 476.8 109.5C472.615 104.246 467.833 99.4978 462.55 95.35C458.025 91.7472 452.964 88.8757 447.55 86.84C441.09 84.53 435.07 84.34 429.49 86.19C423.962 88.0166 419.308 91.8293 416.43 96.89C413.29 102.15 411.723 108.71 411.73 116.57C411.619 124.643 413.228 132.647 416.45 140.05V140.05Z" fill="white"/>
<path d="M51.4 271C65.58 302.733 79.78 356.287 94 431.66C79.6467 430.193 65.3133 428.833 51 427.58C34 377.58 17 329.427 0 283.12C17.15 278.29 34.28 274.3 51.4 271ZM35.54 274.26C68.271 267.255 101.43 262.428 134.8 259.81C136.8 266.03 138.8 273.527 140.8 282.3C108.8 282.97 76.88 287.49 44.92 298.19C41.7867 289.483 38.66 281.507 35.54 274.26ZM53.8 325C83.7 314 113.6 310.15 143.5 310.73C145.413 321.21 147.317 332.823 149.21 345.57C120.33 343.82 91.45 346.29 62.57 355.35C59.6433 344.617 56.72 334.5 53.8 325Z" fill="white"/>
<path d="M220.34 240C225.74 289.673 231.143 359.24 236.55 448.7C223.116 446.94 209.686 445.21 196.26 443.51C187.92 345.623 179.586 279.767 171.26 245.94L220.34 240Z" fill="white"/>
<path d="M303.66 427.61C305.329 430.281 307.57 432.549 310.22 434.25C312.971 436.031 316.02 437.304 319.22 438.01C323.514 439.057 327.983 439.16 332.32 438.31C336.193 437.557 339.727 435.592 342.41 432.7C345.1 429.79 346.57 425.7 346.78 420.32C348.07 425.81 349.34 431.11 350.59 436.17C350.27 443.09 347.81 448.07 343.33 451.77C338.85 455.47 333.22 457.94 326.46 459.39C319.311 460.898 311.962 461.212 304.71 460.32C297.026 459.495 289.615 456.997 283 453C276.098 448.694 270.409 442.698 266.47 435.58C262.059 427.721 259.6 418.917 259.3 409.91C258.68 396.6 262.54 387.55 271.15 382.84C279.76 378.13 292.36 378.5 308.76 383.68C316.21 385.988 323.423 389.001 330.3 392.68C335.983 395.665 341.409 399.116 346.52 403C350.224 405.743 353.555 408.957 356.43 412.56C356.163 418.413 355.893 424.043 355.62 429.45C351.038 425.183 345.954 421.489 340.48 418.45C334.636 415.148 328.436 412.518 322 410.61C316.96 409.117 312.96 408.473 310 408.68C307 408.88 304.8 409.83 303.34 411.5C301.88 413.17 301.16 415.59 301.19 418.68C301.163 421.829 302.019 424.922 303.66 427.61V427.61ZM265.45 330.82C274.6 329.215 283.854 328.272 293.14 328C305.268 327.655 317.384 329.001 329.14 332C340.636 334.61 351.619 339.111 361.64 345.32C370.457 350.737 377.912 358.106 383.43 366.86C388.414 374.886 390.715 384.29 390 393.71C387.8 425.483 385.597 450.307 383.39 468.18C370.577 466.52 357.767 464.837 344.96 463.13C345.893 443.203 346.823 419.66 347.75 392.5C347.885 389.49 347.44 386.482 346.44 383.64C345.402 380.826 343.845 378.231 341.85 375.99C339.6 373.481 336.922 371.392 333.94 369.82C330.456 367.971 326.79 366.486 323 365.39C312.465 362.197 301.408 361.097 290.45 362.15C287.362 362.437 284.3 362.955 281.29 363.7C276.16 352.58 270.86 341.52 265.45 330.82V330.82Z" fill="white"/>
<path d="M505.6 353.19C503.6 369.41 501.58 384.347 499.54 398C469.77 401.85 440 399.79 410.23 394.48C411.29 381.887 412.353 368.13 413.42 353.21C444.15 357.26 474.87 358.12 505.6 353.19ZM487.83 288C479.083 384.353 470.333 447.637 461.58 477.85C448.773 476.377 435.963 474.847 423.15 473.26C429.67 443.88 436.19 382.93 442.71 290.41C457.75 290.21 472.79 289.46 487.83 288Z" fill="white"/>
<path d="M603.75 314.6C600.723 330.6 597.69 346.52 594.65 362.36C564.88 381.82 535.11 392.54 505.34 397.17C507.42 383.423 509.5 368.423 511.58 352.17C542.3 346.47 573 334.82 603.75 314.6ZM589.89 264.05C576.103 351.25 562.313 425.493 548.52 486.78C535.713 485.64 522.9 484.413 510.08 483.1C521.647 441.36 533.21 373.093 544.77 278.3C560.104 274.537 575.176 269.777 589.89 264.05V264.05Z" fill="white"/>
</mask>
<g mask="url(#mask0)">
<rect x="-54" y="-45" width="750" height="570" fill="url(#paint0_linear)"/>
</g>
<defs>
<!-- <linearGradient id="paint0_linear" x1="-0.999983" y1="11" x2="552.5" y2="503" gradientUnits="userSpaceOnUse">
<stop stop-color="#699BC8" stop-opacity="0"/>
<stop offset="1" stop-color="#FFB6B6"/>
</linearGradient> -->
</defs>
</svg>
