<svg xmlns="http://www.w3.org/2000/svg" viewBox="0 0 205.58 165.75"><defs><style>.cls-1{fill:#fff;}</style></defs><g id="Layer_2" data-name="Layer 2"><g id="Layer_1-2" data-name="Layer 1"><path class="cls-1" d="M16.2,2V71.82Q8.1,71.69,0,71.4V1.4Q8.1,1.81,16.2,2Zm-5-.13c11.77.36,23.53.4,35.3.28V21.72C34.73,22.8,23,22.43,11.2,19.24Zm0,31.54c11.1,4.28,22.2,5,33.3,3.76V51.08c-11.1,1.26-22.2.54-33.3-3.89Zm0,28C23,64.5,34.73,64.85,46.5,63.8v8.12C34.73,72,23,72,11.2,71.72Z"/><path class="cls-1" d="M73.7,71.56q-7.45.14-14.9.23V32c5-1.1,9.93-2.44,14.9-3.86ZM84.45,38.63A6.72,6.72,0,0,0,81.1,39a9.59,9.59,0,0,0-3.9,2.45,11.65,11.65,0,0,0-2.6,4.25,16.58,16.58,0,0,0-.9,5.63l-3.6-4A26.15,26.15,0,0,1,72.25,37a28.49,28.49,0,0,1,5.65-8.69,16.71,16.71,0,0,1,7.3-4.69,11.76,11.76,0,0,1,4.8-.43,5.4,5.4,0,0,1,3.5,1.66c-2.17,4.76-4.33,9.79-6.5,14.83A6.52,6.52,0,0,0,84.45,38.63Z"/><path class="cls-1" d="M101.6,1.55A11.2,11.2,0,0,1,107.8,0a15.07,15.07,0,0,1,6.25,1.2c1.7.78,2.55,1.8,2.55,3.25s-.85,2.82-2.55,4.1a14.07,14.07,0,0,1-6.25,2.59,9.39,9.39,0,0,1-6.2-.75A4.61,4.61,0,0,1,99,6.1,5.2,5.2,0,0,1,101.6,1.55Zm13.5,15.71V70.91q-7.3.07-14.6.19V20.42C105.37,19.16,110.23,18.06,115.1,17.26Z"/><path class="cls-1" d="M141.8,47.68a16.23,16.23,0,0,0,4.45,6,13.56,13.56,0,0,0,6.15,3,17.08,17.08,0,0,0,5.35.23,20.46,20.46,0,0,0,4.7-1.09A9.18,9.18,0,0,0,166,53.5V68.2A27.57,27.57,0,0,1,160,71a26.92,26.92,0,0,1-8.8,1.37,21.54,21.54,0,0,1-13.65-4.61,32.37,32.37,0,0,1-9.5-12.31,38.08,38.08,0,0,1-3.45-16.11c0-5.78,1.15-10.37,3.45-14a17.66,17.66,0,0,1,9.5-7.5,22.37,22.37,0,0,1,13.65.06,27.12,27.12,0,0,1,8.8,4.42,32.07,32.07,0,0,1,6,6.06V43.2a27.76,27.76,0,0,0-3.65-5.91,29.44,29.44,0,0,0-4.85-4.82,19.06,19.06,0,0,0-5.1-2.9,9.21,9.21,0,0,0-6.15-.22A8,8,0,0,0,141.8,33a12.86,12.86,0,0,0-1.6,6.7A19.33,19.33,0,0,0,141.8,47.68Z"/><path class="cls-1" d="M17.5,92.27Q24.74,108.49,32,147q-7.32-.75-14.62-1.39Q8.68,120.06,0,96.4C5.84,94.76,11.67,93.4,17.5,92.27Zm-5.4,1.11a257.1,257.1,0,0,1,33.8-4.91q1,3.16,2,7.65a109.08,109.08,0,0,0-32.64,5.41C14.23,98.57,13.16,95.85,12.1,93.38Zm6.22,17.3a82.84,82.84,0,0,1,30.54-4.86q1,5.36,2,11.86A80.85,80.85,0,0,0,21.3,121Q19.81,115.52,18.32,110.68Z"/><path class="cls-1" d="M75,81.7q2.76,25.36,5.52,71.06-6.86-.9-13.71-1.76-4.26-50-8.53-67.27Z"/><path class="cls-1" d="M103.39,145.6a7.32,7.32,0,0,0,2.24,2.26,9.16,9.16,0,0,0,3.05,1.28,10.24,10.24,0,0,0,4.46.1,6.27,6.27,0,0,0,3.44-1.91,6.34,6.34,0,0,0,1.49-4.21q.66,2.81,1.29,5.4a6.8,6.8,0,0,1-2.47,5.3,13.1,13.1,0,0,1-5.74,2.6,22.4,22.4,0,0,1-7.41.32,17.82,17.82,0,0,1-7.37-2.51,16.27,16.27,0,0,1-5.64-5.93,19.22,19.22,0,0,1-2.44-8.74c-.21-4.53,1.11-7.61,4-9.21s7.22-1.48,12.81.28a42.73,42.73,0,0,1,7.33,3.05,41.4,41.4,0,0,1,5.52,3.54,17.92,17.92,0,0,1,3.37,3.26q-.14,3-.27,5.75a26,26,0,0,0-5.16-3.75,30.82,30.82,0,0,0-6.3-2.67,12.6,12.6,0,0,0-4.1-.66,3.18,3.18,0,0,0-2.27,1,3.54,3.54,0,0,0-.73,2.44A5.76,5.76,0,0,0,103.39,145.6Zm-13-33a66.05,66.05,0,0,1,9.43-.94A44.33,44.33,0,0,1,112.06,113a36.48,36.48,0,0,1,11.06,4.54,23,23,0,0,1,7.42,7.34,15.1,15.1,0,0,1,2.25,9.14q-1.12,16.23-2.25,25.36l-13.08-1.72q.47-10.19,1-24a8,8,0,0,0-.45-3A8.12,8.12,0,0,0,116.4,128a9.74,9.74,0,0,0-2.69-2.1,19.89,19.89,0,0,0-3.72-1.51,28.22,28.22,0,0,0-6-1.14,27.19,27.19,0,0,0-5.07,0,21,21,0,0,0-3.12.53C94,120.05,92.23,116.29,90.38,112.64Z"/><path class="cls-1" d="M172.15,120.26q-1,8.28-2.06,15.26a99.63,99.63,0,0,1-30.41-1.2q.54-6.43,1.09-14A108.19,108.19,0,0,0,172.15,120.26Zm-6-22.21q-4.47,49.22-8.94,64.64-6.55-.75-13.09-1.56,3.33-15,6.66-62.26C155.86,98.81,161,98.56,166.11,98.05Z"/><path class="cls-1" d="M205.58,107.12q-1.56,8.16-3.1,16.26a76.29,76.29,0,0,1-30.41,11.86q1.05-7,2.12-15.33A84.5,84.5,0,0,0,205.58,107.12Zm-4.72-17.21q-7.05,44.54-14.09,75.84-6.54-.58-13.09-1.25,5.91-21.33,11.81-69.74A124.49,124.49,0,0,0,200.86,89.91Z"/></g></g></svg>