<svg width="105" height="105" viewBox="0 0 105 105" fill="none" xmlns="http://www.w3.org/2000/svg">
<path d="M14.308 48.9918L21.3967 44.9749L22.8144 43.7935L33.4473 44.9749L40.0634 50.8821L42.8988 61.515L45.2617 70.2577L49.2786 74.9834H40.0634H21.3967L12.8903 67.4222L11 58.4433L14.308 48.9918Z" fill="#252BE7" fill-opacity="0.5"/>
<path d="M91.5728 59.6246C91.7618 54.3318 83.4603 50.3307 79.2859 48.9917L75.269 61.5149L69.5981 68.8398L60.6191 74.747C64.8723 74.8258 74.0875 74.9361 76.923 74.747C80.4673 74.5107 85.193 74.0382 87.7922 71.9116C90.3914 69.785 91.3365 66.2407 91.5728 59.6246Z" fill="#252BE7" fill-opacity="0.2"/>
<path fill-rule="evenodd" clip-rule="evenodd" d="M60.4138 28.1172C56.5083 26.5691 52.2435 26.1615 48.1154 26.9418C43.9873 27.7221 40.1655 29.6583 37.0945 32.5251C34.0235 35.392 31.8295 39.0718 30.7676 43.1366C30.7641 43.1497 30.7609 43.1629 30.7578 43.1761C31.6753 43.4113 32.5654 43.7226 33.4197 44.1041C33.4572 44.025 33.488 43.9412 33.5109 43.8533C34.4372 40.3079 36.3509 37.0984 39.0294 34.5978C41.708 32.0973 45.0414 30.4085 48.642 29.7279C52.2426 29.0473 55.9625 29.4028 59.369 30.7531C62.7755 32.1034 65.7286 34.3931 67.8851 37.3557C68.3458 37.9888 69.2326 38.1284 69.8656 37.6677C70.4987 37.2069 70.6383 36.3201 70.1775 35.6871C67.7052 32.2904 64.3194 29.6654 60.4138 28.1172ZM40.0668 49.4976C39.5012 48.7146 38.87 47.9873 38.1824 47.3218C38.3012 47.1717 38.4181 47.0188 38.5332 46.8631L38.5337 46.8624C38.8251 46.4684 39.1101 46.0801 39.39 45.6988L39.3904 45.6982C41.221 43.204 42.834 41.0063 44.6199 39.4434C46.7965 37.5386 49.2623 36.5294 52.7005 36.6812L52.7106 36.6816L52.7106 36.6817C55.7759 36.839 58.6685 38.1491 60.8085 40.3493C62.9408 42.5416 64.1689 45.456 64.2493 48.5123C64.6696 54.6683 60.3832 60.0407 54.938 63.2948C54.2659 63.6965 53.3954 63.4773 52.9937 62.8052C52.5921 62.133 52.8113 61.2626 53.4834 60.8609C58.4802 57.8747 61.7493 53.3366 61.4186 48.6797L61.4163 48.6462L61.4155 48.6126C61.3601 46.2592 60.4172 44.0138 58.776 42.3263C57.1358 40.64 54.9194 39.6355 52.5703 39.5137C49.8885 39.3963 48.1319 40.1378 46.4872 41.5771C44.9544 42.9186 43.5513 44.827 41.687 47.3627L41.6865 47.3634C41.4066 47.744 41.1164 48.1388 40.8138 48.5479C40.5719 48.8753 40.323 49.1918 40.0668 49.4976ZM42.4441 54.2959C42.1426 53.2989 41.7435 52.3282 41.2499 51.398C42.0125 50.5211 42.7242 49.5929 43.4417 48.6568L43.4422 48.6563C43.6413 48.3966 43.8408 48.1363 44.042 47.8764L44.0436 47.8743C44.2894 47.558 44.5299 47.2416 44.7671 46.9296L44.7671 46.9296C45.6758 45.7344 46.5359 44.6031 47.4579 43.7817C48.7499 42.6307 50.2404 41.9904 52.305 42.082L52.308 42.0822C54.229 42.1715 56.026 43.0751 57.2947 44.3995C58.5669 45.7276 59.3928 47.5747 59.1744 49.5863L59.1742 49.5878C59.0505 50.7166 58.8041 51.6292 58.2369 52.6636C57.7061 53.6316 56.9041 54.6846 55.7604 56.1174C55.272 56.7294 54.3799 56.8295 53.768 56.3411C53.156 55.8526 53.0559 54.9606 53.5443 54.3486C54.7087 52.8898 55.3557 52.0206 55.7507 51.3004C56.1091 50.6467 56.2651 50.1051 56.3556 49.2788C56.4664 48.2542 56.0559 47.2053 55.2471 46.3609C54.4348 45.5129 53.3061 44.9675 52.1778 44.9146C50.8999 44.8582 50.1206 45.2071 49.344 45.8989C48.646 46.5207 48.0089 47.3567 47.1354 48.5028L47.135 48.5034C46.8747 48.845 46.5933 49.2141 46.2831 49.6134C46.0753 49.8819 45.865 50.1576 45.6508 50.4385C44.7023 51.6822 43.6764 53.0273 42.4441 54.2959ZM54.2028 31.447C53.5213 31.3677 52.8358 31.3282 52.1498 31.3287L52.1486 31.3287L52.1497 32.7464L52.1498 31.3287C48.5295 31.3285 44.9988 32.4547 42.0473 34.551C39.0957 36.6473 36.8694 39.61 35.677 43.0283C35.4192 43.7676 35.8094 44.5759 36.5487 44.8338C37.288 45.0917 38.0964 44.7014 38.3543 43.9621C39.3529 41.0994 41.2173 38.6183 43.6891 36.8627C46.161 35.1071 49.1178 34.164 52.1496 34.1641L52.1508 34.1641C52.727 34.1637 53.3028 34.1969 53.8751 34.2634C54.6529 34.3539 55.3567 33.7968 55.4472 33.019C55.5377 32.2413 54.9806 31.5375 54.2028 31.447ZM60.0706 33.2271C59.373 32.8714 58.5192 33.1486 58.1636 33.8462C57.808 34.5438 58.0852 35.3976 58.7827 35.7532C60.6826 36.7217 62.3473 38.0944 63.6602 39.7748C64.973 41.4552 65.902 43.4026 66.3821 45.4803C66.8621 47.558 66.8815 49.7156 66.4389 51.8017C65.9963 53.8877 65.1024 55.8515 63.82 57.5552C63.3491 58.1808 63.4746 59.0697 64.1001 59.5405C64.7257 60.0114 65.6146 59.886 66.0854 59.2604C67.6167 57.226 68.6841 54.881 69.2126 52.3902C69.7411 49.8993 69.718 47.323 69.1447 44.842C68.5715 42.3611 67.4622 40.0357 65.8946 38.0291C64.3269 36.0226 62.3391 34.3835 60.0706 33.2271ZM72.7156 40.1763C72.4124 39.4545 71.5813 39.1151 70.8595 39.4183C70.1376 39.7216 69.7982 40.5526 70.1015 41.2745C71.3375 44.2169 71.8268 47.4193 71.5257 50.5966C71.2246 53.7738 70.1424 56.8273 68.3756 59.4852C66.6088 62.143 64.2122 64.3226 61.3991 65.8301C58.586 67.3375 55.4439 68.1258 52.2524 68.125C51.4694 68.1248 50.8345 68.7593 50.8343 69.5423C50.834 70.3253 51.4686 70.9602 52.2516 70.9604C55.9107 70.9614 59.5132 70.0575 62.7383 68.3293C65.9635 66.601 68.7113 64.1021 70.7369 61.0549C72.7626 58.0077 74.0033 54.5068 74.3485 50.8641C74.6937 47.2214 74.1328 43.5498 72.7156 40.1763Z" fill="#252BE7"/>
<path d="M27.1152 43.7933C28.0988 38.9749 30.4291 34.5344 33.8356 30.9875C37.2421 27.4406 41.585 24.9329 46.3597 23.7557C51.1345 22.5785 56.1453 22.78 60.8101 24.3369C65.475 25.8937 69.6024 28.7421 72.7131 32.551C75.8237 36.36 77.79 40.9733 78.3834 45.8551C78.9769 50.737 78.1731 55.687 76.0656 60.1303C73.9581 64.5736 70.6333 68.3278 66.4774 70.957C62.3214 73.5861 57.5048 74.9822 52.587 74.9832" stroke="#252BE7" stroke-width="2.83545"/>
<path d="M78.5782 48.9918C82.0249 48.9918 85.3305 50.361 87.7676 52.7982C90.2048 55.2354 91.574 58.5409 91.574 61.9876C91.574 65.4343 90.2048 68.7398 87.7676 71.177C85.3305 73.6142 82.0249 74.9834 78.5782 74.9834H26.595C22.4589 74.9834 18.4923 73.3404 15.5677 70.4157C12.643 67.4911 11 63.5245 11 59.3884C11 55.2524 12.643 51.2857 15.5677 48.3611C18.4923 45.4365 22.4589 43.7935 26.595 43.7935C34.1126 43.7935 40.0239 48.3611 41.9537 57.7344C43.6077 65.7682 44.7891 75.456 52.8229 74.9834" stroke="#252BE7" stroke-width="2.83545" stroke-linecap="round"/>
</svg>
