<svg width="266" height="91" viewBox="0 0 266 91" fill="none" xmlns="http://www.w3.org/2000/svg">
<path fill-rule="evenodd" clip-rule="evenodd" d="M78.2572 40.3274C76.539 38.7134 71.1385 39.3432 60.7158 39.9197C62.7759 31.3299 64.2397 23.8264 68.0847 17.9827C85.9264 18.9722 107.851 21.4472 132.961 21.3763C182.399 21.2356 182.844 3.0363 182.844 3.0363C161.811 9.02801 132.921 7.25354 111.07 5.26742C83.6317 2.77148 56.1983 -3.46941 33.5325 2.52126C6.76114 9.59726 4.18701 29.2489 5.13993 37.6802C15.8785 23.7399 30.4111 18.7855 49.0191 17.745C50.7831 17.646 52.6389 17.6074 54.5364 17.5949C51.1605 21.098 48.529 26.6184 45.8194 35.2177C45.2241 37.1047 44.6486 38.9094 44.0803 40.6745C21.1821 42.6419 16.7407 52.978 18.0565 55.6908C19.4535 58.5798 27.5815 54.7932 37.7185 53.6818C38.366 53.6109 38.9863 53.5494 39.6056 53.4889C35.6427 63.6082 31.2733 70.8333 24.2265 75.063C13.492 81.5031 2.25927 78.5202 0 76.7312C0.871598 88.5405 18.8394 94.9805 34.1081 86.7201C46.2854 80.1373 53.3249 64.4235 57.1825 52.6465C60.5073 52.6058 63.6965 52.5683 67.2434 52.3306C76.4567 51.7186 80.5061 42.4407 78.2572 40.3274" fill="#111111"/>
<path fill-rule="evenodd" clip-rule="evenodd" d="M262.991 27.0969C261.083 26.4881 259.044 27.538 258.432 29.4428C258.147 30.3425 258.229 31.2704 258.592 32.0669C255.128 35.1978 251.928 37.5196 250.242 36.9817C248.06 36.2842 249.708 30.4238 251.842 25.0806C253.731 25.3736 255.602 24.259 256.204 22.3782C256.872 20.3024 255.724 18.0765 253.65 17.4114C251.569 16.7431 249.346 17.891 248.677 19.9657C248.208 21.4399 248.647 22.985 249.676 23.9994C246.841 29.1342 243.889 33.5776 241.301 32.8259C241.269 32.8207 241.238 32.8155 241.209 32.8061C238.606 31.9721 238.779 26.6153 239.458 20.7518C240.911 20.5475 242.197 19.5351 242.671 18.0432C243.338 15.9632 242.192 13.7394 240.116 13.0742C238.038 12.4091 235.812 13.5507 235.145 15.6317C234.547 17.4875 235.404 19.4611 237.071 20.3389C235.699 25.922 233.635 31.6457 231.455 30.9472C229.78 30.4092 228.527 26.6862 227.531 22.1478C228.312 21.7151 228.933 21.001 229.227 20.0835C229.836 18.1756 228.788 16.1363 226.883 15.5243C224.976 14.9154 222.937 15.9632 222.325 17.8701C221.713 19.777 222.764 21.8173 224.67 22.4283C224.811 22.4741 224.951 22.5106 225.091 22.5388L225.737 37.7615L250.936 45.8551L260.324 33.8206C260.467 33.8894 260.622 33.9509 260.778 34.002C262.686 34.6108 264.725 33.563 265.337 31.6562C265.948 29.7482 264.898 27.7058 262.991 27.0969" fill="#111111"/>
<path fill-rule="evenodd" clip-rule="evenodd" d="M234.027 69.5329C229.346 77.7432 222.666 81.9261 219.107 78.8765C215.548 75.8301 216.454 66.7023 221.132 58.493C225.808 50.2806 232.488 46.0967 236.049 49.1463C239.61 52.1927 238.703 61.3205 234.027 69.5329M227.679 41.3113C227.679 41.3113 221.687 43.5393 217.521 47.4406C216.104 48.7668 214.734 50.145 213.498 51.6735H213.493C213.482 51.6829 213.478 51.6964 213.473 51.7089C212.323 53.131 211.42 54.6532 210.454 56.2827C209.113 58.542 207.935 60.918 207.012 63.4088L207.009 63.4015C207.009 63.4015 204.6 68.434 202.837 70.9508C201.12 73.3925 197.863 75.731 196.559 76.611C195.126 77.2678 193.55 77.8798 191.852 78.3677C181.154 81.4527 179.188 73.8388 181.582 70.2471C182.442 68.9595 188.364 64.4597 192.418 61.1297C200.246 54.6938 205.61 50.6173 209.298 46.9151C213.198 43.0044 210.683 40.8369 207.649 40.3198C200.087 39.0322 196.627 41.0287 194.427 42.8949C191.774 45.1459 175.953 64.0135 175.953 64.0135C175.953 64.0135 201.706 14.7421 205.936 6.27218C209.418 -0.708946 192.688 -1.67438 188.064 8.36568C185.373 14.2094 166.914 56.4912 164.663 61.7187C160.543 71.2813 160.293 72.7785 158.233 74.4539C158.213 74.4768 158.192 74.507 158.172 74.53C158.121 74.5665 158.07 74.5967 158.014 74.6322C158.009 74.6342 158.003 74.6395 157.998 74.6447C156.015 76.2659 153.239 77.7297 151.385 77.7046C150.269 77.689 149.611 77.028 149.422 75.6747C149.231 74.3236 149.391 72.6002 149.911 70.5014C150.217 69.2524 150.636 67.8835 151.156 66.3947C151.676 64.908 152.242 63.4036 152.853 61.8814C153.468 60.3623 154.098 58.8725 154.745 57.4202C155.393 55.9658 155.984 54.6302 156.525 53.4115C157.06 52.1989 157.514 51.148 157.887 50.2702C158.254 49.3913 158.483 48.7668 158.577 48.3946C159.194 45.8934 159.074 43.6393 158.427 42.2193C157.779 40.7983 156.601 40.0904 154.908 40.0904C153.213 40.0904 151.614 40.5596 150.136 41.3957C148.514 42.3111 147.035 43.3234 145.5 45.148C145.159 45.5535 144.648 46.1791 143.965 47.0225C143.282 47.8691 142.518 48.8429 141.671 49.9397C140.82 51.0406 139.919 52.1885 138.963 53.3885C138.005 54.5896 137.102 55.7291 136.261 56.8103C135.414 57.8935 134.673 58.8475 134.027 59.6763C133.38 60.5041 132.911 61.1036 132.616 61.4758H131.6C131.659 61.2392 131.824 60.7752 132.094 60.0819C132.371 59.3886 132.697 58.5774 133.078 57.6496C133.461 56.7206 133.874 55.701 134.313 54.6052C134.757 53.5084 135.179 52.4429 135.588 51.4107C135.996 50.3775 136.355 49.434 136.669 48.5697C136.985 47.7085 137.204 47.0225 137.329 46.5179C137.79 44.6569 137.8 43.1702 137.362 42.0557C136.929 40.9391 135.794 40.3813 133.966 40.3813C132.136 40.3813 130.554 40.9057 129.228 41.9535C127.903 43.0013 126.86 44.3045 126.103 45.858C125.134 47.8535 124.054 50.2524 122.85 53.0601C121.647 55.8647 120.468 58.7807 119.316 61.8053C118.161 64.8308 117.087 67.8064 116.093 70.7287C115.637 72.0747 115.232 73.3394 114.87 74.5373C112.458 75.7456 109.961 76.7757 107.374 77.5535C106.379 77.8517 105.151 78.056 104.437 77.3012C103.916 76.7507 103.906 75.8989 103.975 75.142C104.347 71.1395 106.079 67.4092 107.725 63.7424C110.49 57.5651 113.074 51.3086 115.477 44.9832C115.778 44.1898 116.078 43.3203 115.819 42.5175C115.41 41.2602 113.886 40.7962 112.575 40.6252C109.744 40.2562 106.474 40.5366 104.645 42.7344C104.039 43.4579 103.652 44.3327 103.269 45.197C100.133 52.2667 96.9999 59.3375 93.8659 66.4072C91.8923 70.8611 89.4506 75.7613 84.8403 77.345C84.0448 77.6171 83.145 77.7735 82.3725 77.4346C81.3831 77.0009 80.8733 75.8426 80.8733 74.7625C80.8785 73.6813 81.2965 72.6481 81.7042 71.6462C85.5795 62.2129 88.4424 55.6551 92.3156 46.2166C92.4949 45.7829 93.4583 43.5778 93.4833 42.5405C93.5041 41.8117 92.9432 41.1861 92.4845 40.9776C90.0136 39.8475 87.0047 40.5314 84.7746 42.0817C81.258 44.5266 79.3386 48.478 77.6048 52.2344C75.6822 56.4099 73.7295 60.5761 71.978 64.8267C69.9762 69.6914 67.8295 74.4049 66.7379 79.5604C66.1802 82.1919 66.3324 85.5897 68.2507 87.4799C69.5018 88.7112 71.368 89.0657 73.1206 89.122C80.2102 89.343 86.9307 85.6304 92.1071 80.7792C92.2854 83.3492 92.6701 86.2913 94.8199 87.7093C96.1961 88.6142 97.956 88.6424 99.5928 88.4693C102.884 88.1221 106.066 87.1025 109.143 85.8785C110.423 85.3687 111.688 84.8182 112.937 84.2385C112.952 84.7869 113.009 85.3072 113.11 85.792C113.319 86.7907 113.778 87.5842 114.479 88.1732C115.18 88.7675 116.226 89.0625 117.616 89.0625C118.735 89.0625 119.78 88.8102 120.752 88.3025C121.723 87.7958 122.717 86.847 123.742 85.4604L143.578 59.0925H144.388C143.318 61.8001 142.354 64.3242 141.502 66.6752C140.645 69.0252 139.973 71.2125 139.474 73.2403C138.193 78.4136 137.862 82.3452 138.463 85.0319C139.075 87.7186 140.309 89.0625 142.173 89.0625C144.037 89.0625 145.883 88.7998 147.706 88.2775C149.531 87.752 151.324 87.0764 153.088 86.2486C154.306 85.6741 155.507 85.0319 156.698 84.3532C156.693 84.7973 156.566 85.6491 156.55 86.0516C156.484 87.508 156.703 87.8104 157.381 88.438C158.058 89.0657 158.763 89.1261 160.222 89.1261C161.303 89.1261 161.695 89.0292 162.66 88.3359C163.556 87.6915 166.825 82.8592 169.339 79.4249C169.752 78.8588 170.206 78.2697 170.706 77.6713C169.783 81.9323 171.772 88.1544 177.718 89.1261C183.489 90.0697 192.887 88.757 205.012 79.4124C205.227 80.7156 205.553 81.9469 206.015 83.0969C206.894 85.2967 208.277 87.0816 210.166 88.4484C212.05 89.8153 214.563 90.4982 217.694 90.4982C219.867 90.4982 222.006 90.126 224.115 89.3816C226.221 88.6372 228.24 87.6248 230.178 86.3445C232.11 85.0674 233.925 83.5587 235.618 81.8197C237.314 80.0807 238.841 78.2145 240.203 76.2252C241.499 74.3444 242.607 72.3906 243.563 70.3816C245.307 66.4583 246.138 63.5235 247.011 59.0028C247.418 56.5986 247.632 54.4676 247.602 52.5221C247.602 52.5221 247.387 47.7158 246.725 47.2748C246.064 46.8359 227.679 41.3113 227.679 41.3113" fill="#111111"/>
</svg>
