<svg width="769" height="234" viewBox="0 0 769 234" fill="none" xmlns="http://www.w3.org/2000/svg">
<path d="M60.2434 155.251C73.0806 166.515 95.66 172.708 120.898 167.171C131.58 164.827 140.952 158.958 140.755 151.374C140.558 143.79 133.115 141.512 114.978 141.971C83.567 142.995 40.146 144.993 43.4872 95.3686C45.8786 61.6958 46.3706 31.1777 96.3793 20.2059C126.469 13.6044 164.153 14.4304 193.29 26.2251C187.802 42.979 179.9 58.8437 169.836 73.3194C153.668 64.5998 134.965 61.7876 116.947 65.3668C102.952 68.4372 100.558 74.2426 100.716 79.1949C100.866 86.7889 108.183 87.8237 127.86 87.0269C159.069 85.7532 201.806 85.7639 197.827 131.812C195.191 175.512 192.34 201.072 141.724 212.177C102.253 221.033 62.4006 217.456 35.8194 204.611C41.6432 187.109 49.8626 170.498 60.2434 155.251V155.251Z" fill="black"/>
<path d="M329.926 104.588C309.199 140.691 282.788 176.794 298.214 212.896H237.464C177.478 149.191 247.924 85.4857 187.03 21.7803H251.888C286.131 60.7485 271.278 99.7168 267.171 138.685C289.14 99.7168 321.855 60.7485 305.378 21.7803H348.935C384.611 60.7485 371.191 99.7168 368.516 138.685C389.005 99.7168 420.24 60.7485 402.33 21.7803H467.378C491.688 85.4857 384.754 149.191 408.252 212.801H347.502C315.646 176.794 325.533 140.691 329.926 104.588Z" fill="black"/>
<path d="M545.107 188.257H471.749C470.796 196.575 471.744 205 474.519 212.899H411.763C393.519 149.193 505.706 85.4877 486.65 21.8779H559.435C625.487 85.5833 560.295 149.289 625.534 212.899H562.778C555.673 205.628 549.715 197.319 545.107 188.257V188.257ZM491.473 140.12H535.03C534.696 117.675 538.182 95.2298 534.027 72.7849C523.616 95.3253 505.658 117.675 491.473 140.12Z" fill="black"/>
<path d="M630.713 136.968C619.25 98.7641 617.388 60.1779 567.861 21.7827H632.91C653.991 38.0805 669.345 60.6576 676.753 86.2522C693.851 64.7624 706.077 43.2726 703.403 21.7827H768.451C770.409 59.9869 724.703 98.573 688.597 136.968C680.382 162.278 676.418 187.589 692.991 212.899H635.202C618.534 187.589 622.546 162.183 630.713 136.968Z" fill="black"/>
</svg>
